<mxfile host="app.diagrams.net" agent="Mozilla/5.0 (X11; Linux x86_64) AppleWebKit/537.36 (KHTML, like Gecko) Chrome/128.0.0.0 Safari/537.36" version="24.7.17">
  <diagram name="Page-1" id="o6QZ2EAWK0i7Zn1z4f_8">
    <mxGraphModel dx="1513" dy="1180" grid="1" gridSize="10" guides="1" tooltips="1" connect="1" arrows="1" fold="1" page="1" pageScale="1" pageWidth="827" pageHeight="1169" math="0" shadow="0">
      <root>
        <mxCell id="0" />
        <mxCell id="1" parent="0" />
        <mxCell id="e8DhM2t7KkDENQPRrTF5-5" value="&lt;b&gt;Wait in queue&lt;/b&gt;&lt;div&gt;(first-in-first-out)&lt;/div&gt;" style="edgeStyle=orthogonalEdgeStyle;rounded=0;orthogonalLoop=1;jettySize=auto;html=1;exitX=1;exitY=0.5;exitDx=0;exitDy=0;entryX=0;entryY=0.5;entryDx=0;entryDy=0;" edge="1" parent="1" source="e8DhM2t7KkDENQPRrTF5-2" target="e8DhM2t7KkDENQPRrTF5-3">
          <mxGeometry relative="1" as="geometry" />
        </mxCell>
        <mxCell id="e8DhM2t7KkDENQPRrTF5-2" value="&lt;b&gt;Patient &lt;/b&gt;calls the urgent care centre" style="rounded=1;whiteSpace=wrap;html=1;" vertex="1" parent="1">
          <mxGeometry x="40" y="40" width="120" height="40" as="geometry" />
        </mxCell>
        <mxCell id="e8DhM2t7KkDENQPRrTF5-8" style="edgeStyle=orthogonalEdgeStyle;rounded=0;orthogonalLoop=1;jettySize=auto;html=1;exitX=1;exitY=0.5;exitDx=0;exitDy=0;entryX=0;entryY=0.5;entryDx=0;entryDy=0;" edge="1" parent="1" source="e8DhM2t7KkDENQPRrTF5-3" target="e8DhM2t7KkDENQPRrTF5-7">
          <mxGeometry relative="1" as="geometry" />
        </mxCell>
        <mxCell id="e8DhM2t7KkDENQPRrTF5-3" value="Speak with&lt;b&gt; operator&lt;/b&gt;" style="rounded=1;whiteSpace=wrap;html=1;" vertex="1" parent="1">
          <mxGeometry x="310" y="40" width="100" height="40" as="geometry" />
        </mxCell>
        <mxCell id="e8DhM2t7KkDENQPRrTF5-7" value="Exit" style="text;html=1;align=center;verticalAlign=middle;whiteSpace=wrap;rounded=0;" vertex="1" parent="1">
          <mxGeometry x="450" y="45" width="40" height="30" as="geometry" />
        </mxCell>
      </root>
    </mxGraphModel>
  </diagram>
</mxfile>
